<svg width="38" height="38" viewBox="0 0 38 38" fill="none" xmlns="http://www.w3.org/2000/svg">
<path d="M16.9385 16.0127H26.2634C28.8795 16.0127 31.0003 18.1335 31.0002 20.7496L31.0001 28.3129C31.0001 30.9016 28.9015 33.0001 26.3128 33.0001V33.0001C23.7241 33.0001 21.6255 30.9015 21.6256 28.3128L21.6257 20.7C21.6257 18.1113 19.5272 16.0127 16.9385 16.0127V16.0127Z" fill="url(#paint0_radial_8591_19227)"/>
<path d="M6 18.7895C6 16.1735 8.12073 14.0527 10.7368 14.0527H16.8875C19.5035 14.0527 21.6243 16.1735 21.6243 18.7895V28.3126C21.6243 30.9013 23.7228 32.9999 26.3115 32.9999V32.9999L13.8946 32.9998C9.53454 32.9998 6 29.4653 6 25.1052V18.7895Z" fill="url(#paint1_radial_8591_19227)"/>
<path d="M6 18.7895C6 16.1735 8.12073 14.0527 10.7368 14.0527H16.8875C19.5035 14.0527 21.6243 16.1735 21.6243 18.7895V28.3126C21.6243 30.9013 23.7228 32.9999 26.3115 32.9999V32.9999L13.8946 32.9998C9.53454 32.9998 6 29.4653 6 25.1052V18.7895Z" fill="url(#paint2_linear_8591_19227)" fill-opacity="0.7"/>
<path d="M6 18.7895C6 16.1735 8.12073 14.0527 10.7368 14.0527H16.8875C19.5035 14.0527 21.6243 16.1735 21.6243 18.7895V28.3126C21.6243 30.9013 23.7228 32.9999 26.3115 32.9999V32.9999L13.8946 32.9998C9.53454 32.9998 6 29.4653 6 25.1052V18.7895Z" fill="url(#paint3_radial_8591_19227)" fill-opacity="0.7"/>
<path d="M25.5311 14.0529C27.6883 14.0529 29.4371 12.2856 29.4371 10.1055C29.4371 7.92548 27.6883 6.1582 25.5311 6.1582C23.3738 6.1582 21.625 7.92548 21.625 10.1055C21.625 12.2856 23.3738 14.0529 25.5311 14.0529Z" fill="url(#paint4_radial_8591_19227)"/>
<path d="M25.5311 14.0529C27.6883 14.0529 29.4371 12.2856 29.4371 10.1055C29.4371 7.92548 27.6883 6.1582 25.5311 6.1582C23.3738 6.1582 21.625 7.92548 21.625 10.1055C21.625 12.2856 23.3738 14.0529 25.5311 14.0529Z" fill="url(#paint5_radial_8591_19227)" fill-opacity="0.46"/>
<path d="M25.5311 14.0529C27.6883 14.0529 29.4371 12.2856 29.4371 10.1055C29.4371 7.92548 27.6883 6.1582 25.5311 6.1582C23.3738 6.1582 21.625 7.92548 21.625 10.1055C21.625 12.2856 23.3738 14.0529 25.5311 14.0529Z" fill="url(#paint6_radial_8591_19227)" fill-opacity="0.4"/>
<path d="M13.8123 12.4736C16.401 12.4736 18.4996 10.3528 18.4996 7.73679C18.4996 5.12073 16.401 3 13.8123 3C11.2236 3 9.125 5.12073 9.125 7.73679C9.125 10.3528 11.2236 12.4736 13.8123 12.4736Z" fill="url(#paint7_radial_8591_19227)"/>
<path d="M13.8123 12.4736C16.401 12.4736 18.4996 10.3528 18.4996 7.73679C18.4996 5.12073 16.401 3 13.8123 3C11.2236 3 9.125 5.12073 9.125 7.73679C9.125 10.3528 11.2236 12.4736 13.8123 12.4736Z" fill="url(#paint8_radial_8591_19227)" fill-opacity="0.6"/>
<path d="M13.8123 12.4736C16.401 12.4736 18.4996 10.3528 18.4996 7.73679C18.4996 5.12073 16.401 3 13.8123 3C11.2236 3 9.125 5.12073 9.125 7.73679C9.125 10.3528 11.2236 12.4736 13.8123 12.4736Z" fill="url(#paint9_radial_8591_19227)" fill-opacity="0.5"/>
<rect x="3" y="18.2085" width="13" height="13" rx="2.64063" fill="url(#paint10_radial_8591_19227)"/>
<rect x="3" y="18.2085" width="13" height="13" rx="2.64063" fill="url(#paint11_radial_8591_19227)" fill-opacity="0.7"/>
<path d="M12.3261 22.3566H10.3378V28.4227H8.66018V22.3566H6.67188V20.9941H12.3261V22.3566Z" fill="white"/>
<defs>
<radialGradient id="paint0_radial_8591_19227" cx="0" cy="0" r="1" gradientUnits="userSpaceOnUse" gradientTransform="translate(30.8416 17.3481) scale(10.5295 26.265)">
<stop stop-color="#A98AFF"/>
<stop offset="0.14" stop-color="#8C75FF"/>
<stop offset="0.565" stop-color="#5F50E2"/>
<stop offset="0.9" stop-color="#3C2CB8"/>
</radialGradient>
<radialGradient id="paint1_radial_8591_19227" cx="0" cy="0" r="1" gradientTransform="matrix(9.52103 23.9997 -24.1199 9.47358 6.63474 12.7896)" gradientUnits="userSpaceOnUse">
<stop stop-color="#85C2FF"/>
<stop offset="0.69" stop-color="#7588FF"/>
<stop offset="1" stop-color="#6459FE"/>
</radialGradient>
<linearGradient id="paint2_linear_8591_19227" x1="15.8384" y1="14.0527" x2="15.8384" y2="32.9999" gradientUnits="userSpaceOnUse">
<stop offset="0.801159" stop-color="#6864F6" stop-opacity="0"/>
<stop offset="1" stop-color="#5149DE"/>
</linearGradient>
<radialGradient id="paint3_radial_8591_19227" cx="0" cy="0" r="1" gradientTransform="matrix(-5.94484 13.9323 -11.6673 -3.41567 21.2337 13.4212)" gradientUnits="userSpaceOnUse">
<stop stop-color="#BD96FF"/>
<stop offset="0.686685" stop-color="#BD96FF" stop-opacity="0"/>
</radialGradient>
<radialGradient id="paint4_radial_8591_19227" cx="0" cy="0" r="1" gradientUnits="userSpaceOnUse" gradientTransform="translate(25.5311 8.97772) rotate(-90) scale(7.89465 9.86018)">
<stop offset="0.268201" stop-color="#6868F7"/>
<stop offset="1" stop-color="#3923B1"/>
</radialGradient>
<radialGradient id="paint5_radial_8591_19227" cx="0" cy="0" r="1" gradientTransform="matrix(4.27342 3.63034 5.19596 -6.24628 22.3028 8.16663)" gradientUnits="userSpaceOnUse">
<stop offset="0.270711" stop-color="#A1D3FF"/>
<stop offset="0.813393" stop-color="#A1D3FF" stop-opacity="0"/>
</radialGradient>
<radialGradient id="paint6_radial_8591_19227" cx="0" cy="0" r="1" gradientTransform="matrix(4.96858 -4.46702 10.8434 12.3171 28.642 8.02812)" gradientUnits="userSpaceOnUse">
<stop stop-color="#E3ACFD"/>
<stop offset="0.816041" stop-color="#9FA2FF" stop-opacity="0"/>
</radialGradient>
<radialGradient id="paint7_radial_8591_19227" cx="0" cy="0" r="1" gradientUnits="userSpaceOnUse" gradientTransform="translate(13.8123 6.38342) rotate(-90) scale(9.47358 11.8322)">
<stop offset="0.268201" stop-color="#8282FF"/>
<stop offset="1" stop-color="#3923B1"/>
</radialGradient>
<radialGradient id="paint8_radial_8591_19227" cx="0" cy="0" r="1" gradientTransform="matrix(5.1281 4.3564 6.23516 -7.49554 9.93839 5.41011)" gradientUnits="userSpaceOnUse">
<stop offset="0.270711" stop-color="#A1D3FF"/>
<stop offset="0.813393" stop-color="#A1D3FF" stop-opacity="0"/>
</radialGradient>
<radialGradient id="paint9_radial_8591_19227" cx="0" cy="0" r="1" gradientTransform="matrix(5.9623 -5.36042 13.0121 14.7805 17.5455 5.2439)" gradientUnits="userSpaceOnUse">
<stop stop-color="#E3ACFD"/>
<stop offset="0.816041" stop-color="#9FA2FF" stop-opacity="0"/>
</radialGradient>
<radialGradient id="paint10_radial_8591_19227" cx="0" cy="0" r="1" gradientUnits="userSpaceOnUse" gradientTransform="translate(3 18.2085) rotate(45) scale(18.3848)">
<stop offset="0.046875" stop-color="#688EFF"/>
<stop offset="0.946875" stop-color="#230F94"/>
</radialGradient>
<radialGradient id="paint11_radial_8591_19227" cx="0" cy="0" r="1" gradientUnits="userSpaceOnUse" gradientTransform="translate(9.5 26.0085) rotate(90) scale(9.1 10.6195)">
<stop offset="0.570647" stop-color="#6965F6" stop-opacity="0"/>
<stop offset="1" stop-color="#8F8FFF"/>
</radialGradient>
</defs>
</svg>
