<svg xmlns="http://www.w3.org/2000/svg" xmlns:xlink="http://www.w3.org/1999/xlink" width="502px" isFromKittenPainter="true" height="123.31993299832496px" data-paper-data="{&quot;version&quot;:&quot;1.0&quot;}"><g data-paper-data="{&quot;isWorkLayer&quot;:true,&quot;backgroundColor&quot;:&quot;#ffffff&quot;}" fill="none" fill-rule="nonzero" stroke="none" stroke-width="none" stroke-linecap="butt" stroke-linejoin="none" stroke-miterlimit="10" stroke-dasharray="" stroke-dashoffset="0" font-family="none" font-weight="none" font-size="none" text-anchor="none" style="mix-blend-mode: normal" visibility="visible" transform="scale(0.9413735343383585) translate(-373,-281)"><defs defsFrom="KittenPainter"/><g data-paper-data="{&quot;isCustomGroup&quot;:true,&quot;hasSelected&quot;:false,&quot;selectedCenterX&quot;:639.9999999999999,&quot;selectedCenterY&quot;:338.85103125,&quot;selectedRotationAngle&quot;:-90,&quot;selectedScalingX&quot;:1,&quot;selectedScalingY&quot;:1,&quot;version&quot;:&quot;1.0&quot;}"><g data-paper-data="{&quot;isCustomGroup&quot;:true,&quot;hasSelected&quot;:false,&quot;selectedCenterX&quot;:735.56864,&quot;selectedCenterY&quot;:360.06043,&quot;selectedRotationAngle&quot;:-90,&quot;selectedScalingX&quot;:1,&quot;selectedScalingY&quot;:1,&quot;strokeHovered&quot;:false}" fill="#ba6228" stroke="#ba6228" stroke-width="32" stroke-linejoin="round"><path d="M459.88065,328.39725h200.82204l69.94929,66.94644h-340.72062z" data-paper-data="{&quot;creator&quot;:&quot;GraphData&quot;,&quot;reverseBorderAnimation&quot;:false,&quot;hasSelected&quot;:false,&quot;selectedCenterX&quot;:560.2916699999998,&quot;selectedCenterY&quot;:361.87046999999995,&quot;selectedRotationAngle&quot;:-90,&quot;selectedScalingX&quot;:1,&quot;selectedScalingY&quot;:1,&quot;strokeChanged&quot;:true,&quot;strokeHovered&quot;:false}"/><path d="M619.29731,328.64725h200.82205l69.94928,66.94644h-340.72061z" data-paper-data="{&quot;creator&quot;:&quot;GraphData&quot;,&quot;reverseBorderAnimation&quot;:false,&quot;hasSelected&quot;:false,&quot;selectedCenterX&quot;:719.7083349999999,&quot;selectedCenterY&quot;:362.12046999999995,&quot;selectedRotationAngle&quot;:-90,&quot;selectedScalingX&quot;:1,&quot;selectedScalingY&quot;:1,&quot;strokeChanged&quot;:true,&quot;strokeHovered&quot;:false}"/></g><path d="M592.99634,360.18601c-3.90652,0 -7.07339,-3.16686 -7.07339,-7.07339v0c0,-3.90652 3.16686,-7.07339 7.07339,-7.07339h94.41296c3.90652,0 7.07339,3.16686 7.07339,7.07339v0c0,3.90652 -3.16686,7.07339 -7.07339,7.07339z" data-paper-data="{&quot;creator&quot;:&quot;GraphData&quot;,&quot;enableRadius&quot;:true,&quot;radius&quot;:7.07339,&quot;maxRadius&quot;:7.07339,&quot;strokeChanged&quot;:true,&quot;hasSelected&quot;:false,&quot;selectedCenterX&quot;:640.20282,&quot;selectedCenterY&quot;:353.11262,&quot;selectedRotationAngle&quot;:-90,&quot;selectedScalingX&quot;:1,&quot;selectedScalingY&quot;:1,&quot;strokeColorFromPalette&quot;:true,&quot;strokeHovered&quot;:false}" fill="#909090" stroke="#474747" stroke-width="4" stroke-linejoin="round"/><path d="M452.71391,363.16508c-1.57721,0 -2.85577,-1.27858 -2.85577,-2.85579v0c0,-1.57721 1.27857,-2.85577 2.85577,-2.85577h14.76472c1.57721,0 2.85579,1.27857 2.85579,2.85577v0c0,1.57721 -1.27858,2.85579 -2.85579,2.85579z" data-paper-data="{&quot;creator&quot;:&quot;GraphData&quot;,&quot;enableRadius&quot;:true,&quot;radius&quot;:2.18946,&quot;maxRadius&quot;:2.18946,&quot;strokeChanged&quot;:true,&quot;hasSelected&quot;:false,&quot;selectedCenterX&quot;:460.09627999999987,&quot;selectedCenterY&quot;:360.3093,&quot;selectedRotationAngle&quot;:-90,&quot;selectedScalingX&quot;:1,&quot;selectedScalingY&quot;:1,&quot;strokeHovered&quot;:false}" fill="#aaaaaa" stroke="#aaaaaa" stroke-width="4" stroke-linejoin="round"/><path d="M454.49867,352.16559c-3.03716,0 -5.49926,-2.4621 -5.49926,-5.49926v-19.63834c0,-3.03716 2.4621,-5.49926 5.49926,-5.49926h10.99853c3.03716,0 5.49926,2.4621 5.49926,5.49926v19.63834c0,3.03716 -2.4621,5.49926 -5.49926,5.49926z" data-paper-data="{&quot;creator&quot;:&quot;GraphData&quot;,&quot;enableRadius&quot;:true,&quot;radius&quot;:3.71844,&quot;maxRadius&quot;:7.43688,&quot;strokeChanged&quot;:true,&quot;hasSelected&quot;:false,&quot;selectedCenterX&quot;:459.99793499999987,&quot;selectedCenterY&quot;:336.84716000000003,&quot;selectedRotationAngle&quot;:-90,&quot;selectedScalingX&quot;:1,&quot;selectedScalingY&quot;:1,&quot;strokeColorFromPalette&quot;:true,&quot;strokeHovered&quot;:false}" fill="#5d5d5d" stroke="#000000" stroke-width="4" stroke-linejoin="round"/><path d="M450.85854,331.62508c-3.97626,0 -7.19968,-3.2234 -7.19968,-7.19966v-16.23755c0,-3.97626 3.22342,-7.19966 7.19968,-7.19966h18.75317c3.97626,0 7.19966,3.2234 7.19966,7.19966v16.23755c0,3.97626 -3.2234,7.19966 -7.19966,7.19966z" data-paper-data="{&quot;creator&quot;:&quot;GraphData&quot;,&quot;enableRadius&quot;:true,&quot;radius&quot;:9.76825,&quot;maxRadius&quot;:20.7835,&quot;strokeChanged&quot;:true,&quot;hasSelected&quot;:false,&quot;selectedCenterX&quot;:460.23511499999995,&quot;selectedCenterY&quot;:316.306645,&quot;selectedRotationAngle&quot;:-90,&quot;selectedScalingX&quot;:1,&quot;selectedScalingY&quot;:1,&quot;strokeColorFromPalette&quot;:true,&quot;strokeHovered&quot;:false}" fill="#5d5d5d" stroke="#000000" stroke-width="4" stroke-linejoin="round"/><g data-paper-data="{&quot;isCustomGroup&quot;:true,&quot;hasSelected&quot;:false,&quot;selectedCenterX&quot;:820.73511,&quot;selectedCenterY&quot;:331.82664,&quot;selectedRotationAngle&quot;:-90,&quot;selectedScalingX&quot;:1,&quot;selectedScalingY&quot;:1,&quot;strokeHovered&quot;:false}" stroke-width="4" stroke-linejoin="round"><path d="M813.21391,362.91508c-1.57721,0 -2.85577,-1.27858 -2.85577,-2.85579v0c0,-1.57721 1.27857,-2.85577 2.85577,-2.85577h14.76472c1.57721,0 2.85579,1.27857 2.85579,2.85577v0c0,1.57721 -1.27858,2.85579 -2.85579,2.85579z" data-paper-data="{&quot;creator&quot;:&quot;GraphData&quot;,&quot;enableRadius&quot;:true,&quot;radius&quot;:2.18946,&quot;maxRadius&quot;:2.18946,&quot;strokeChanged&quot;:true,&quot;hasSelected&quot;:false,&quot;selectedCenterX&quot;:820.59628,&quot;selectedCenterY&quot;:360.0593,&quot;selectedRotationAngle&quot;:-90,&quot;selectedScalingX&quot;:1,&quot;selectedScalingY&quot;:1}" fill="#aaaaaa" stroke="#aaaaaa"/><path d="M814.99867,351.91559c-3.03716,0 -5.49926,-2.4621 -5.49926,-5.49926v-19.63834c0,-3.03716 2.4621,-5.49926 5.49926,-5.49926h10.99853c3.03716,0 5.49926,2.4621 5.49926,5.49926v19.63834c0,3.03716 -2.4621,5.49926 -5.49926,5.49926z" data-paper-data="{&quot;creator&quot;:&quot;GraphData&quot;,&quot;enableRadius&quot;:true,&quot;radius&quot;:3.71844,&quot;maxRadius&quot;:7.43688,&quot;strokeChanged&quot;:true,&quot;hasSelected&quot;:false,&quot;selectedCenterX&quot;:820.4979349999999,&quot;selectedCenterY&quot;:336.59716000000003,&quot;selectedRotationAngle&quot;:-90,&quot;selectedScalingX&quot;:1,&quot;selectedScalingY&quot;:1}" fill="#f12629" stroke="#bc0000"/><path d="M811.35854,331.37508c-3.97626,0 -7.19968,-3.2234 -7.19968,-7.19966v-16.23755c0,-3.97626 3.22342,-7.19966 7.19968,-7.19966h18.75317c3.97626,0 7.19966,3.2234 7.19966,7.19966v16.23755c0,3.97626 -3.2234,7.19966 -7.19966,7.19966z" data-paper-data="{&quot;creator&quot;:&quot;GraphData&quot;,&quot;enableRadius&quot;:true,&quot;radius&quot;:9.76825,&quot;maxRadius&quot;:20.7835,&quot;strokeChanged&quot;:true,&quot;hasSelected&quot;:false,&quot;selectedCenterX&quot;:820.735115,&quot;selectedCenterY&quot;:316.056645,&quot;selectedRotationAngle&quot;:-90,&quot;selectedScalingX&quot;:1,&quot;selectedScalingY&quot;:1}" fill="#f12629" stroke="#bc0000"/></g><g data-paper-data="{&quot;isCustomGroup&quot;:true,&quot;hasSelected&quot;:false,&quot;selectedCenterX&quot;:640.00686,&quot;selectedCenterY&quot;:302.37135,&quot;selectedRotationAngle&quot;:-90,&quot;selectedScalingX&quot;:1,&quot;selectedScalingY&quot;:1,&quot;strokeHovered&quot;:false}" fill="#f9f9f9" stroke-linejoin="round"><g data-paper-data="{&quot;isCustomGroup&quot;:true,&quot;hasSelected&quot;:false,&quot;selectedCenterX&quot;:622.25686,&quot;selectedCenterY&quot;:256.37135,&quot;selectedRotationAngle&quot;:-90,&quot;selectedScalingX&quot;:1,&quot;selectedScalingY&quot;:1,&quot;strokeColorFromPalette&quot;:true,&quot;strokeHovered&quot;:false}" stroke="#b6b6b6" stroke-width="4"><path d="M629.24985,314.81055c5.19121,7.95435 16.35438,7.95435 21.54559,0c3.48488,-5.33955 6.46836,-11.48283 6.46836,-16.86532c0,-6.3365 -3.92989,-12.00852 -9.86237,-14.23469l-1.35978,-0.51007c-3.88057,-1.45613 -8.15744,-1.45613 -12.03801,0l-1.35978,0.51007c-5.93269,2.22617 -9.86237,7.89818 -9.86237,14.23447c0,5.38271 2.98348,11.52599 6.46836,16.86554z" data-paper-data="{&quot;creator&quot;:&quot;GraphData&quot;,&quot;reverseBorderAnimation&quot;:true,&quot;hasSelected&quot;:false,&quot;selectedCenterX&quot;:640.0226449999998,&quot;selectedCenterY&quot;:301.4423425,&quot;selectedRotationAngle&quot;:-90,&quot;selectedScalingX&quot;:1,&quot;selectedScalingY&quot;:1,&quot;strokeHovered&quot;:false,&quot;strokeColorFromPalette&quot;:true,&quot;strokeChanged&quot;:true}"/><path d="M627.79325,322.63433c-2.78535,0 -5.04332,-2.25797 -5.04332,-5.04332v-19.57995c0,-2.78535 2.25797,-5.04332 5.04332,-5.04332h24.19569c2.78535,0 5.04332,2.25797 5.04332,5.04332v19.57995c0,2.78535 -2.25797,5.04332 -5.04332,5.04332z" data-paper-data="{&quot;creator&quot;:&quot;GraphData&quot;,&quot;enableRadius&quot;:true,&quot;radius&quot;:5.04332,&quot;maxRadius&quot;:14.83329,&quot;strokeChanged&quot;:true,&quot;hasSelected&quot;:false,&quot;selectedCenterX&quot;:639.891095,&quot;selectedCenterY&quot;:307.80103499999996,&quot;selectedRotationAngle&quot;:-90,&quot;selectedScalingX&quot;:1,&quot;selectedScalingY&quot;:1,&quot;strokeHovered&quot;:false,&quot;strokeColorFromPalette&quot;:true}"/></g><g data-paper-data="{&quot;isCustomGroup&quot;:true,&quot;hasSelected&quot;:false,&quot;selectedCenterX&quot;:622.25686,&quot;selectedCenterY&quot;:256.37135,&quot;selectedRotationAngle&quot;:-90,&quot;selectedScalingX&quot;:1,&quot;selectedScalingY&quot;:1,&quot;strokeHovered&quot;:false}" stroke="#474747" stroke-width="0"><path d="M629.24985,314.81055c5.19121,7.95435 16.35438,7.95435 21.54559,0c3.48488,-5.33955 6.46836,-11.48283 6.46836,-16.86532c0,-6.3365 -3.92989,-12.00852 -9.86237,-14.23469l-1.35978,-0.51007c-3.88057,-1.45613 -8.15744,-1.45613 -12.03801,0l-1.35978,0.51007c-5.93269,2.22617 -9.86237,7.89818 -9.86237,14.23447c0,5.38271 2.98348,11.52599 6.46836,16.86554z" data-paper-data="{&quot;creator&quot;:&quot;GraphData&quot;,&quot;reverseBorderAnimation&quot;:true,&quot;hasSelected&quot;:false,&quot;selectedCenterX&quot;:640.0226449999998,&quot;selectedCenterY&quot;:301.4423425,&quot;selectedRotationAngle&quot;:-90,&quot;selectedScalingX&quot;:1,&quot;selectedScalingY&quot;:1,&quot;strokeHovered&quot;:false,&quot;strokeChanged&quot;:false}"/><path d="M627.79325,322.63433c-2.78535,0 -5.04332,-2.25797 -5.04332,-5.04332v-19.57995c0,-2.78535 2.25797,-5.04332 5.04332,-5.04332h24.19569c2.78535,0 5.04332,2.25797 5.04332,5.04332v19.57995c0,2.78535 -2.25797,5.04332 -5.04332,5.04332z" data-paper-data="{&quot;creator&quot;:&quot;GraphData&quot;,&quot;enableRadius&quot;:true,&quot;radius&quot;:5.04332,&quot;maxRadius&quot;:14.83329,&quot;strokeChanged&quot;:false,&quot;hasSelected&quot;:false,&quot;selectedCenterX&quot;:639.891095,&quot;selectedCenterY&quot;:307.80103499999996,&quot;selectedRotationAngle&quot;:-90,&quot;selectedScalingX&quot;:1,&quot;selectedScalingY&quot;:1,&quot;strokeHovered&quot;:false}"/></g></g><g data-paper-data="{&quot;isCustomGroup&quot;:true,&quot;hasSelected&quot;:false,&quot;selectedCenterX&quot;:628.97392,&quot;selectedCenterY&quot;:329.88941,&quot;selectedRotationAngle&quot;:-90,&quot;selectedScalingX&quot;:1,&quot;selectedScalingY&quot;:1,&quot;strokeHovered&quot;:false}" stroke="none" stroke-width="1" stroke-linejoin="miter"><path d="M632.09885,359.35577c-1.0356,0 -1.87512,-0.83953 -1.87512,-1.87513v-55.18245c0,-1.0356 0.83952,-1.87513 1.87512,-1.87513v0c1.0356,0 1.87513,0.83953 1.87513,1.87513v55.18245c0,1.0356 -0.83953,1.87513 -1.87513,1.87513z" data-paper-data="{&quot;creator&quot;:&quot;GraphData&quot;,&quot;enableRadius&quot;:true,&quot;radius&quot;:1.87513,&quot;maxRadius&quot;:1.87513,&quot;hasSelected&quot;:false,&quot;selectedCenterX&quot;:632.0988549999997,&quot;selectedCenterY&quot;:329.889415,&quot;selectedRotationAngle&quot;:-90,&quot;selectedScalingX&quot;:1,&quot;selectedScalingY&quot;:1}" fill="#e5e5e5"/><path d="M629.72282,335.75c-0.67534,0 -1.22282,-0.54748 -1.22282,-1.22282v-4.5022c0,-0.67534 0.54748,-1.22282 1.22282,-1.22282h4.5022c0.67534,0 1.22282,0.54748 1.22282,1.22282v4.5022c0,0.67534 -0.54748,1.22282 -1.22282,1.22282z" data-paper-data="{&quot;creator&quot;:&quot;GraphData&quot;,&quot;enableRadius&quot;:true,&quot;radius&quot;:22,&quot;reverseBorderAnimation&quot;:false,&quot;hasSelected&quot;:false,&quot;selectedCenterX&quot;:631.9739199999999,&quot;selectedCenterY&quot;:332.27608,&quot;selectedRotationAngle&quot;:-90,&quot;selectedScalingX&quot;:1,&quot;selectedScalingY&quot;:1}" fill="#aaaaaa"/></g><g data-paper-data="{&quot;isCustomGroup&quot;:true,&quot;hasSelected&quot;:false,&quot;selectedCenterX&quot;:647.22392,&quot;selectedCenterY&quot;:329.88941,&quot;selectedRotationAngle&quot;:-90,&quot;selectedScalingX&quot;:1,&quot;selectedScalingY&quot;:1,&quot;strokeHovered&quot;:false}" stroke="none" stroke-width="1" stroke-linejoin="miter"><path d="M647.34885,359.35577c-1.0356,0 -1.87512,-0.83953 -1.87512,-1.87513v-55.18245c0,-1.0356 0.83952,-1.87513 1.87512,-1.87513v0c1.0356,0 1.87513,0.83953 1.87513,1.87513v55.18245c0,1.0356 -0.83953,1.87513 -1.87513,1.87513z" data-paper-data="{&quot;creator&quot;:&quot;GraphData&quot;,&quot;enableRadius&quot;:true,&quot;radius&quot;:1.87513,&quot;maxRadius&quot;:1.87513,&quot;hasSelected&quot;:false,&quot;selectedCenterX&quot;:647.348855,&quot;selectedCenterY&quot;:329.889415,&quot;selectedRotationAngle&quot;:-90,&quot;selectedScalingX&quot;:1,&quot;selectedScalingY&quot;:1}" fill="#e5e5e5"/><path d="M644.97282,335.75c-0.67534,0 -1.22282,-0.54748 -1.22282,-1.22282v-4.5022c0,-0.67534 0.54748,-1.22282 1.22282,-1.22282h4.5022c0.67534,0 1.22282,0.54748 1.22282,1.22282v4.5022c0,0.67534 -0.54748,1.22282 -1.22282,1.22282z" data-paper-data="{&quot;creator&quot;:&quot;GraphData&quot;,&quot;enableRadius&quot;:true,&quot;radius&quot;:22,&quot;reverseBorderAnimation&quot;:false,&quot;hasSelected&quot;:false,&quot;selectedCenterX&quot;:647.2239199999999,&quot;selectedCenterY&quot;:332.27608,&quot;selectedRotationAngle&quot;:-90,&quot;selectedScalingX&quot;:1,&quot;selectedScalingY&quot;:1}" fill="#aaaaaa"/></g><g data-paper-data="{&quot;isCustomGroup&quot;:true,&quot;hasSelected&quot;:false,&quot;selectedCenterX&quot;:639.29105970915,&quot;selectedCenterY&quot;:305.48930194068623,&quot;selectedRotationAngle&quot;:-90,&quot;selectedScalingX&quot;:1,&quot;selectedScalingY&quot;:1,&quot;strokeHovered&quot;:false}" fill="#e5e5e5" stroke="#f9f9f9" stroke-width="0" stroke-linejoin="miter"><path d="M631.314,310.48584c-0.41393,0 -0.74948,-0.33555 -0.74948,-0.74948v-8.49411c0,-0.41393 0.33555,-0.74948 0.74948,-0.74948h8.31805c-0.7937,0.98393 -1.42027,1.9349 -1.66445,2.41958c-0.45527,0.90369 -1.06041,1.85569 -1.00112,2.86584c0.1472,2.50781 2.39522,1.6784 2.75683,3.35257c0.16978,0.78605 -1.15798,0.93212 -2.12151,1.35508z" data-paper-data="{&quot;strokeHovered&quot;:false,&quot;hasSelected&quot;:false,&quot;selectedCenterX&quot;:635.1513123635708,&quot;selectedCenterY&quot;:305.489305,&quot;selectedRotationAngle&quot;:-90}"/><path d="M647.26812,300.49277c0.41393,0 0.74948,0.33555 0.74948,0.74948v8.49411c0,0.41393 -0.33555,0.74948 -0.74948,0.74948h-4.20456c0.50033,-0.72281 0.75513,-1.50083 0.52798,-2.21705c-0.28263,-0.89114 -2.60997,-2.13824 -3.27821,-2.77647c-0.08521,-0.08138 -0.25055,-0.20405 -0.18441,-0.30156c1.18006,-1.73978 3.07351,-2.97007 4.23797,-4.698z" data-paper-data="{&quot;strokeHovered&quot;:false,&quot;hasSelected&quot;:false,&quot;selectedCenterX&quot;:644.0656370507918,&quot;selectedCenterY&quot;:305.4893,&quot;selectedRotationAngle&quot;:-90}"/></g></g></g></svg>