<svg xmlns="http://www.w3.org/2000/svg" xmlns:xlink="http://www.w3.org/1999/xlink" width="502px" isFromKittenPainter="true" height="107.31658291457286px" data-paper-data="{&quot;version&quot;:&quot;1.0&quot;}"><g data-paper-data="{&quot;isWorkLayer&quot;:true,&quot;backgroundColor&quot;:&quot;#ffffff&quot;}" fill="none" fill-rule="nonzero" stroke="none" stroke-width="none" stroke-linecap="butt" stroke-linejoin="round" stroke-miterlimit="10" stroke-dasharray="" stroke-dashoffset="0" font-family="none" font-weight="none" font-size="none" text-anchor="none" style="mix-blend-mode: normal" visibility="visible" transform="scale(0.9413735343383585) translate(-373,-298)"><defs defsFrom="KittenPainter"/><g data-paper-data="{&quot;isCustomGroup&quot;:true,&quot;hasSelected&quot;:false,&quot;selectedCenterX&quot;:735.56864,&quot;selectedCenterY&quot;:360.06043,&quot;selectedRotationAngle&quot;:-90,&quot;selectedScalingX&quot;:1,&quot;selectedScalingY&quot;:1,&quot;strokeHovered&quot;:false}" fill="#ba6228" stroke="#ba6228" stroke-width="32"><path d="M459.88065,328.39725h200.82204l69.94929,66.94644h-340.72062z" data-paper-data="{&quot;creator&quot;:&quot;GraphData&quot;,&quot;reverseBorderAnimation&quot;:false,&quot;hasSelected&quot;:false,&quot;selectedCenterX&quot;:560.2916699999996,&quot;selectedCenterY&quot;:361.87046999999995,&quot;selectedRotationAngle&quot;:-90,&quot;selectedScalingX&quot;:1,&quot;selectedScalingY&quot;:1,&quot;strokeChanged&quot;:true,&quot;strokeHovered&quot;:false}"/><path d="M619.29731,328.64725h200.82205l69.94928,66.94644h-340.72061z" data-paper-data="{&quot;creator&quot;:&quot;GraphData&quot;,&quot;reverseBorderAnimation&quot;:false,&quot;hasSelected&quot;:false,&quot;selectedCenterX&quot;:719.7083349999997,&quot;selectedCenterY&quot;:362.12046999999995,&quot;selectedRotationAngle&quot;:-90,&quot;selectedScalingX&quot;:1,&quot;selectedScalingY&quot;:1,&quot;strokeChanged&quot;:true,&quot;strokeHovered&quot;:false}"/></g><path d="M592.99634,360.18601c-3.90652,0 -7.07339,-3.16686 -7.07339,-7.07339v0c0,-3.90652 3.16686,-7.07339 7.07339,-7.07339h94.41296c3.90652,0 7.07339,3.16686 7.07339,7.07339v0c0,3.90652 -3.16686,7.07339 -7.07339,7.07339z" data-paper-data="{&quot;creator&quot;:&quot;GraphData&quot;,&quot;enableRadius&quot;:true,&quot;radius&quot;:7.073387505359165,&quot;maxRadius&quot;:7.073387505359165,&quot;strokeChanged&quot;:true,&quot;hasSelected&quot;:false,&quot;selectedCenterX&quot;:640.2028199999997,&quot;selectedCenterY&quot;:353.11262,&quot;selectedRotationAngle&quot;:-90,&quot;selectedScalingX&quot;:1,&quot;selectedScalingY&quot;:1}" fill="#dbdbdb" stroke="#aaaaaa" stroke-width="4"/><path d="M611.00545,360.33114c-4.60152,0 -8.33179,-3.73027 -8.33179,-8.33179v-13.63384c0,-4.60152 3.73027,-8.3318 8.33179,-8.3318h56.23262c4.60152,0 8.33179,3.73028 8.33179,8.3318v13.63384c0,4.60152 -3.73027,8.33179 -8.33179,8.33179z" data-paper-data="{&quot;creator&quot;:&quot;GraphData&quot;,&quot;enableRadius&quot;:true,&quot;radius&quot;:8.33179,&quot;maxRadius&quot;:15.14871,&quot;strokeChanged&quot;:true,&quot;hasSelected&quot;:false,&quot;selectedCenterX&quot;:639.1217599999997,&quot;selectedCenterY&quot;:345.18242499999997,&quot;selectedRotationAngle&quot;:-90,&quot;selectedScalingX&quot;:1,&quot;selectedScalingY&quot;:1,&quot;strokeColorFromPalette&quot;:true}" fill="#909090" stroke="#474747" stroke-width="4"/><path d="M452.71391,363.16508c-1.57721,0 -2.85577,-1.27858 -2.85577,-2.85579v0c0,-1.57721 1.27857,-2.85577 2.85577,-2.85577h14.76472c1.57721,0 2.85579,1.27857 2.85579,2.85577v0c0,1.57721 -1.27858,2.85579 -2.85579,2.85579z" data-paper-data="{&quot;creator&quot;:&quot;GraphData&quot;,&quot;enableRadius&quot;:true,&quot;radius&quot;:2.18946,&quot;maxRadius&quot;:2.18946,&quot;strokeChanged&quot;:true,&quot;hasSelected&quot;:false,&quot;selectedCenterX&quot;:460.09627999999964,&quot;selectedCenterY&quot;:360.3093,&quot;selectedRotationAngle&quot;:-90,&quot;selectedScalingX&quot;:1,&quot;selectedScalingY&quot;:1}" fill="#aaaaaa" stroke="#aaaaaa" stroke-width="4"/><path d="M454.49867,352.16559c-3.03716,0 -5.49926,-2.4621 -5.49926,-5.49926v-19.63834c0,-3.03716 2.4621,-5.49926 5.49926,-5.49926h10.99853c3.03716,0 5.49926,2.4621 5.49926,5.49926v19.63834c0,3.03716 -2.4621,5.49926 -5.49926,5.49926z" data-paper-data="{&quot;creator&quot;:&quot;GraphData&quot;,&quot;enableRadius&quot;:true,&quot;radius&quot;:3.71844,&quot;maxRadius&quot;:7.43688,&quot;strokeChanged&quot;:true,&quot;hasSelected&quot;:false,&quot;selectedCenterX&quot;:459.99793499999964,&quot;selectedCenterY&quot;:336.84716000000003,&quot;selectedRotationAngle&quot;:-90,&quot;selectedScalingX&quot;:1,&quot;selectedScalingY&quot;:1,&quot;strokeColorFromPalette&quot;:true,&quot;strokeHovered&quot;:false}" fill="#5d5d5d" stroke="#000000" stroke-width="4"/><path d="M450.85854,331.62508c-3.97626,0 -7.19968,-3.2234 -7.19968,-7.19966v-16.23755c0,-3.97626 3.22342,-7.19966 7.19968,-7.19966h18.75317c3.97626,0 7.19966,3.2234 7.19966,7.19966v16.23755c0,3.97626 -3.2234,7.19966 -7.19966,7.19966z" data-paper-data="{&quot;creator&quot;:&quot;GraphData&quot;,&quot;enableRadius&quot;:true,&quot;radius&quot;:9.76825,&quot;maxRadius&quot;:20.7835,&quot;strokeChanged&quot;:true,&quot;hasSelected&quot;:false,&quot;selectedCenterX&quot;:460.2351149999997,&quot;selectedCenterY&quot;:316.306645,&quot;selectedRotationAngle&quot;:-90,&quot;selectedScalingX&quot;:1,&quot;selectedScalingY&quot;:1,&quot;strokeColorFromPalette&quot;:true,&quot;strokeHovered&quot;:false}" fill="#5d5d5d" stroke="#000000" stroke-width="4"/><g data-paper-data="{&quot;isCustomGroup&quot;:true,&quot;hasSelected&quot;:false,&quot;selectedCenterX&quot;:820.73511,&quot;selectedCenterY&quot;:331.82664,&quot;selectedRotationAngle&quot;:-90,&quot;selectedScalingX&quot;:1,&quot;selectedScalingY&quot;:1,&quot;strokeHovered&quot;:false}" stroke-width="4"><path d="M813.21391,362.91508c-1.57721,0 -2.85577,-1.27858 -2.85577,-2.85579v0c0,-1.57721 1.27857,-2.85577 2.85577,-2.85577h14.76472c1.57721,0 2.85579,1.27857 2.85579,2.85577v0c0,1.57721 -1.27858,2.85579 -2.85579,2.85579z" data-paper-data="{&quot;creator&quot;:&quot;GraphData&quot;,&quot;enableRadius&quot;:true,&quot;radius&quot;:2.18946,&quot;maxRadius&quot;:2.18946,&quot;strokeChanged&quot;:true,&quot;hasSelected&quot;:false,&quot;selectedCenterX&quot;:820.5962799999998,&quot;selectedCenterY&quot;:360.0593,&quot;selectedRotationAngle&quot;:-90,&quot;selectedScalingX&quot;:1,&quot;selectedScalingY&quot;:1}" fill="#aaaaaa" stroke="#aaaaaa"/><path d="M814.99867,351.91559c-3.03716,0 -5.49926,-2.4621 -5.49926,-5.49926v-19.63834c0,-3.03716 2.4621,-5.49926 5.49926,-5.49926h10.99853c3.03716,0 5.49926,2.4621 5.49926,5.49926v19.63834c0,3.03716 -2.4621,5.49926 -5.49926,5.49926z" data-paper-data="{&quot;creator&quot;:&quot;GraphData&quot;,&quot;enableRadius&quot;:true,&quot;radius&quot;:3.71844,&quot;maxRadius&quot;:7.43688,&quot;strokeChanged&quot;:true,&quot;hasSelected&quot;:false,&quot;selectedCenterX&quot;:820.4979349999996,&quot;selectedCenterY&quot;:336.59716000000003,&quot;selectedRotationAngle&quot;:-90,&quot;selectedScalingX&quot;:1,&quot;selectedScalingY&quot;:1}" fill="#f12629" stroke="#bc0000"/><path d="M811.35854,331.37508c-3.97626,0 -7.19968,-3.2234 -7.19968,-7.19966v-16.23755c0,-3.97626 3.22342,-7.19966 7.19968,-7.19966h18.75317c3.97626,0 7.19966,3.2234 7.19966,7.19966v16.23755c0,3.97626 -3.2234,7.19966 -7.19966,7.19966z" data-paper-data="{&quot;creator&quot;:&quot;GraphData&quot;,&quot;enableRadius&quot;:true,&quot;radius&quot;:9.76825,&quot;maxRadius&quot;:20.7835,&quot;strokeChanged&quot;:true,&quot;hasSelected&quot;:false,&quot;selectedCenterX&quot;:820.7351149999997,&quot;selectedCenterY&quot;:316.056645,&quot;selectedRotationAngle&quot;:-90,&quot;selectedScalingX&quot;:1,&quot;selectedScalingY&quot;:1}" fill="#f12629" stroke="#bc0000"/></g></g></svg>