<svg xmlns="http://www.w3.org/2000/svg" xmlns:xlink="http://www.w3.org/1999/xlink" width="502px" isFromKittenPainter="true" height="175.09547738693468px" data-paper-data="{&quot;version&quot;:&quot;1.0&quot;}"><g data-paper-data="{&quot;isWorkLayer&quot;:true,&quot;backgroundColor&quot;:&quot;#ffffff&quot;}" fill="none" fill-rule="nonzero" stroke="none" stroke-width="none" stroke-linecap="butt" stroke-linejoin="none" stroke-miterlimit="10" stroke-dasharray="" stroke-dashoffset="0" font-family="none" font-weight="none" font-size="none" text-anchor="none" style="mix-blend-mode: normal" visibility="visible" transform="scale(0.9413735343383585) translate(-373,-226)"><defs defsFrom="KittenPainter"/><g data-paper-data="{&quot;isCustomGroup&quot;:true,&quot;hasSelected&quot;:false,&quot;selectedCenterX&quot;:735.56864,&quot;selectedCenterY&quot;:360.06043,&quot;selectedRotationAngle&quot;:-90,&quot;selectedScalingX&quot;:1,&quot;selectedScalingY&quot;:1,&quot;strokeHovered&quot;:false}" fill="#ba6228" stroke="#ba6228" stroke-width="32" stroke-linejoin="round"><path d="M459.88065,328.39725h200.82204l69.94929,66.94644h-340.72062z" data-paper-data="{&quot;creator&quot;:&quot;GraphData&quot;,&quot;reverseBorderAnimation&quot;:false,&quot;hasSelected&quot;:false,&quot;selectedCenterX&quot;:560.2916699999996,&quot;selectedCenterY&quot;:361.87046999999984,&quot;selectedRotationAngle&quot;:-90,&quot;selectedScalingX&quot;:1,&quot;selectedScalingY&quot;:1,&quot;strokeChanged&quot;:true,&quot;strokeHovered&quot;:false}"/><path d="M619.29731,328.64725h200.82205l69.94928,66.94644h-340.72061z" data-paper-data="{&quot;creator&quot;:&quot;GraphData&quot;,&quot;reverseBorderAnimation&quot;:false,&quot;hasSelected&quot;:false,&quot;selectedCenterX&quot;:719.7083349999997,&quot;selectedCenterY&quot;:362.12046999999984,&quot;selectedRotationAngle&quot;:-90,&quot;selectedScalingX&quot;:1,&quot;selectedScalingY&quot;:1,&quot;strokeChanged&quot;:true,&quot;strokeHovered&quot;:false}"/></g><path d="M452.71391,363.16508c-1.57721,0 -2.85577,-1.27858 -2.85577,-2.85579v0c0,-1.57721 1.27857,-2.85577 2.85577,-2.85577h14.76472c1.57721,0 2.85579,1.27857 2.85579,2.85577v0c0,1.57721 -1.27858,2.85579 -2.85579,2.85579z" data-paper-data="{&quot;creator&quot;:&quot;GraphData&quot;,&quot;enableRadius&quot;:true,&quot;radius&quot;:2.18946,&quot;maxRadius&quot;:2.18946,&quot;strokeChanged&quot;:true,&quot;hasSelected&quot;:false,&quot;selectedCenterX&quot;:460.09627999999964,&quot;selectedCenterY&quot;:360.3092999999999,&quot;selectedRotationAngle&quot;:-90,&quot;selectedScalingX&quot;:1,&quot;selectedScalingY&quot;:1}" fill="#aaaaaa" stroke="#aaaaaa" stroke-width="4" stroke-linejoin="round"/><path d="M454.49867,352.16559c-3.03716,0 -5.49926,-2.4621 -5.49926,-5.49926v-19.63834c0,-3.03716 2.4621,-5.49926 5.49926,-5.49926h10.99853c3.03716,0 5.49926,2.4621 5.49926,5.49926v19.63834c0,3.03716 -2.4621,5.49926 -5.49926,5.49926z" data-paper-data="{&quot;creator&quot;:&quot;GraphData&quot;,&quot;enableRadius&quot;:true,&quot;radius&quot;:3.71844,&quot;maxRadius&quot;:7.43688,&quot;strokeChanged&quot;:true,&quot;hasSelected&quot;:false,&quot;selectedCenterX&quot;:459.99793499999964,&quot;selectedCenterY&quot;:336.8471599999999,&quot;selectedRotationAngle&quot;:-90,&quot;selectedScalingX&quot;:1,&quot;selectedScalingY&quot;:1,&quot;strokeColorFromPalette&quot;:true}" fill="#5d5d5d" stroke="#000000" stroke-width="4" stroke-linejoin="round"/><path d="M450.85854,331.62508c-3.97626,0 -7.19968,-3.2234 -7.19968,-7.19966v-16.23755c0,-3.97626 3.22342,-7.19966 7.19968,-7.19966h18.75317c3.97626,0 7.19966,3.2234 7.19966,7.19966v16.23755c0,3.97626 -3.2234,7.19966 -7.19966,7.19966z" data-paper-data="{&quot;creator&quot;:&quot;GraphData&quot;,&quot;enableRadius&quot;:true,&quot;radius&quot;:9.76825,&quot;maxRadius&quot;:20.7835,&quot;strokeChanged&quot;:true,&quot;hasSelected&quot;:false,&quot;selectedCenterX&quot;:460.2351149999997,&quot;selectedCenterY&quot;:316.3066449999999,&quot;selectedRotationAngle&quot;:-90,&quot;selectedScalingX&quot;:1,&quot;selectedScalingY&quot;:1,&quot;strokeColorFromPalette&quot;:true}" fill="#5d5d5d" stroke="#000000" stroke-width="4" stroke-linejoin="round"/><g data-paper-data="{&quot;isCustomGroup&quot;:true,&quot;hasSelected&quot;:false,&quot;selectedCenterX&quot;:820.73511,&quot;selectedCenterY&quot;:331.82664,&quot;selectedRotationAngle&quot;:-90,&quot;selectedScalingX&quot;:1,&quot;selectedScalingY&quot;:1,&quot;strokeHovered&quot;:false}" stroke-width="4" stroke-linejoin="round"><path d="M813.21391,362.91508c-1.57721,0 -2.85577,-1.27858 -2.85577,-2.85579v0c0,-1.57721 1.27857,-2.85577 2.85577,-2.85577h14.76472c1.57721,0 2.85579,1.27857 2.85579,2.85577v0c0,1.57721 -1.27858,2.85579 -2.85579,2.85579z" data-paper-data="{&quot;creator&quot;:&quot;GraphData&quot;,&quot;enableRadius&quot;:true,&quot;radius&quot;:2.18946,&quot;maxRadius&quot;:2.18946,&quot;strokeChanged&quot;:true,&quot;hasSelected&quot;:false,&quot;selectedCenterX&quot;:820.5962799999998,&quot;selectedCenterY&quot;:360.0592999999999,&quot;selectedRotationAngle&quot;:-90,&quot;selectedScalingX&quot;:1,&quot;selectedScalingY&quot;:1}" fill="#aaaaaa" stroke="#aaaaaa"/><path d="M814.99867,351.91559c-3.03716,0 -5.49926,-2.4621 -5.49926,-5.49926v-19.63834c0,-3.03716 2.4621,-5.49926 5.49926,-5.49926h10.99853c3.03716,0 5.49926,2.4621 5.49926,5.49926v19.63834c0,3.03716 -2.4621,5.49926 -5.49926,5.49926z" data-paper-data="{&quot;creator&quot;:&quot;GraphData&quot;,&quot;enableRadius&quot;:true,&quot;radius&quot;:3.71844,&quot;maxRadius&quot;:7.43688,&quot;strokeChanged&quot;:true,&quot;hasSelected&quot;:false,&quot;selectedCenterX&quot;:820.4979349999996,&quot;selectedCenterY&quot;:336.5971599999999,&quot;selectedRotationAngle&quot;:-90,&quot;selectedScalingX&quot;:1,&quot;selectedScalingY&quot;:1}" fill="#f12629" stroke="#bc0000"/><path d="M811.35854,331.37508c-3.97626,0 -7.19968,-3.2234 -7.19968,-7.19966v-16.23755c0,-3.97626 3.22342,-7.19966 7.19968,-7.19966h18.75317c3.97626,0 7.19966,3.2234 7.19966,7.19966v16.23755c0,3.97626 -3.2234,7.19966 -7.19966,7.19966z" data-paper-data="{&quot;creator&quot;:&quot;GraphData&quot;,&quot;enableRadius&quot;:true,&quot;radius&quot;:9.76825,&quot;maxRadius&quot;:20.7835,&quot;strokeChanged&quot;:true,&quot;hasSelected&quot;:false,&quot;selectedCenterX&quot;:820.7351149999997,&quot;selectedCenterY&quot;:316.0566449999999,&quot;selectedRotationAngle&quot;:-90,&quot;selectedScalingX&quot;:1,&quot;selectedScalingY&quot;:1}" fill="#f12629" stroke="#bc0000"/></g><path d="M624.86141,346.14021c-4.8049,0 -8.70003,-3.89513 -8.70003,-8.70003v-32.03194c0,-4.8049 3.89513,-8.70003 8.70003,-8.70003h32.03194c2.92382,0 5.51077,1.4423 7.08819,3.65424c0.18475,1.43346 0.72659,2.75506 1.53343,3.87269c0.05171,0.38367 0.07841,0.77526 0.07841,1.1731v32.03194c0,4.8049 -3.89513,8.70003 -8.70003,8.70003z" data-paper-data="{&quot;creator&quot;:&quot;GraphData&quot;,&quot;enableRadius&quot;:true,&quot;radius&quot;:22,&quot;reverseBorderAnimation&quot;:false,&quot;hasSelected&quot;:false,&quot;selectedCenterX&quot;:640.8773799999997,&quot;selectedCenterY&quot;:321.4242099999999,&quot;selectedRotationAngle&quot;:-90,&quot;selectedScalingX&quot;:1,&quot;selectedScalingY&quot;:1,&quot;strokeChanged&quot;:true}" fill="#dbdbdb" stroke="#777777" stroke-width="2" stroke-linejoin="round"/><g data-paper-data="{&quot;isCustomGroup&quot;:true,&quot;hasSelected&quot;:false,&quot;selectedCenterX&quot;:640.83159,&quot;selectedCenterY&quot;:317.07641,&quot;selectedRotationAngle&quot;:-90,&quot;selectedScalingX&quot;:1,&quot;selectedScalingY&quot;:1}" fill="#777777" stroke="#777777" stroke-width="0" stroke-linejoin="round"><path d="M616.10841,323.01972l-0.64746,-3.04609l50.59381,-10.75405l0.64747,3.04609z" data-paper-data="{&quot;creator&quot;:&quot;GraphData&quot;,&quot;enableRadius&quot;:true,&quot;radius&quot;:0,&quot;reverseBorderAnimation&quot;:false,&quot;strokeChanged&quot;:false,&quot;hasSelected&quot;:false,&quot;selectedCenterX&quot;:641.0815899999998,&quot;selectedCenterY&quot;:316.11964999999987,&quot;selectedRotationAngle&quot;:-90,&quot;selectedScalingX&quot;:1,&quot;selectedScalingY&quot;:1}"/><path d="M615.60841,331.76972l-0.64746,-3.04609l50.59381,-10.75405l0.64747,3.04609z" data-paper-data="{&quot;creator&quot;:&quot;GraphData&quot;,&quot;enableRadius&quot;:true,&quot;radius&quot;:0,&quot;reverseBorderAnimation&quot;:false,&quot;strokeChanged&quot;:false,&quot;hasSelected&quot;:false,&quot;selectedCenterX&quot;:640.5815899999996,&quot;selectedCenterY&quot;:324.86964999999987,&quot;selectedRotationAngle&quot;:-90,&quot;selectedScalingX&quot;:1,&quot;selectedScalingY&quot;:1}"/><path d="M615.60841,339.26972l-0.64746,-3.04609l50.59381,-10.75405l0.64747,3.04609z" data-paper-data="{&quot;creator&quot;:&quot;GraphData&quot;,&quot;enableRadius&quot;:true,&quot;radius&quot;:0,&quot;reverseBorderAnimation&quot;:false,&quot;strokeChanged&quot;:false,&quot;hasSelected&quot;:false,&quot;selectedCenterX&quot;:640.5815899999996,&quot;selectedCenterY&quot;:332.36964999999987,&quot;selectedRotationAngle&quot;:-90,&quot;selectedScalingX&quot;:1,&quot;selectedScalingY&quot;:1}"/><path d="M616.35841,313.76972l-0.64746,-3.04609l48.28382,-10.26304c0.15007,1.06629 0.498,2.06906 1.00545,2.96999z" data-paper-data="{&quot;creator&quot;:&quot;GraphData&quot;,&quot;enableRadius&quot;:true,&quot;radius&quot;:0,&quot;reverseBorderAnimation&quot;:false,&quot;strokeChanged&quot;:false,&quot;hasSelected&quot;:false,&quot;selectedCenterX&quot;:640.3555849999996,&quot;selectedCenterY&quot;:307.1151549999999,&quot;selectedRotationAngle&quot;:-90,&quot;selectedScalingX&quot;:1,&quot;selectedScalingY&quot;:1}"/><path d="M616.60841,304.76972l-0.64746,-3.04609l31.41115,-6.67665c0.87373,0.30339 1.81226,0.46823 2.78928,0.46823c1.14057,0 2.22867,-0.22465 3.22247,-0.63211c0.79845,0.24833 1.64737,0.38211 2.52753,0.38211c0.61555,0 1.21583,-0.06543 1.79424,-0.18972c0.77559,0.26025 1.6011,0.41169 2.45842,0.43619z" data-paper-data="{&quot;creator&quot;:&quot;GraphData&quot;,&quot;enableRadius&quot;:true,&quot;radius&quot;:0,&quot;reverseBorderAnimation&quot;:false,&quot;strokeChanged&quot;:false,&quot;hasSelected&quot;:false,&quot;selectedCenterX&quot;:638.0624949999997,&quot;selectedCenterY&quot;:299.8264099999999,&quot;selectedRotationAngle&quot;:-90,&quot;selectedScalingX&quot;:1,&quot;selectedScalingY&quot;:1}"/></g><path d="M613.32507,330.95408c-2.40944,0 -4.36268,-1.95323 -4.36268,-4.36267v0c0,-2.40944 1.95324,-4.36267 4.36268,-4.36267h52.10906c2.40944,0 4.36267,1.95323 4.36267,4.36267v0c0,2.40944 -1.95323,4.36267 -4.36267,4.36267z" data-paper-data="{&quot;creator&quot;:&quot;GraphData&quot;,&quot;enableRadius&quot;:true,&quot;radius&quot;:4.36267,&quot;maxRadius&quot;:4.36267,&quot;strokeChanged&quot;:true,&quot;hasSelected&quot;:false,&quot;selectedCenterX&quot;:639.3795949999997,&quot;selectedCenterY&quot;:326.5914099999999,&quot;selectedRotationAngle&quot;:-90,&quot;selectedScalingX&quot;:1,&quot;selectedScalingY&quot;:1}" fill="#dbdbdb" stroke="#777777" stroke-width="2" stroke-linejoin="round"/><path d="M663.8823,344.74212h-48.22092l24.32018,12.41631z" data-paper-data="{&quot;creator&quot;:&quot;GraphData&quot;,&quot;reverseBorderAnimation&quot;:false,&quot;hasSelected&quot;:false,&quot;selectedCenterX&quot;:639.7718399999997,&quot;selectedCenterY&quot;:350.9502749999999,&quot;selectedRotationAngle&quot;:-90,&quot;selectedScalingX&quot;:1,&quot;selectedScalingY&quot;:1,&quot;strokeChanged&quot;:true}" fill="#dbdbdb" stroke="#777777" stroke-width="5" stroke-linejoin="round"/><path d="M613.32507,345.45408c-2.40944,0 -4.36268,-1.95323 -4.36268,-4.36267v0c0,-2.40944 1.95324,-4.36267 4.36268,-4.36267h52.10906c2.40944,0 4.36267,1.95323 4.36267,4.36267v0c0,2.40944 -1.95323,4.36267 -4.36267,4.36267z" data-paper-data="{&quot;creator&quot;:&quot;GraphData&quot;,&quot;enableRadius&quot;:true,&quot;radius&quot;:4.36267,&quot;maxRadius&quot;:4.36267,&quot;strokeChanged&quot;:true,&quot;hasSelected&quot;:false,&quot;selectedCenterX&quot;:639.3795949999997,&quot;selectedCenterY&quot;:341.0914099999999,&quot;selectedRotationAngle&quot;:-90,&quot;selectedScalingX&quot;:1,&quot;selectedScalingY&quot;:1}" fill="#dbdbdb" stroke="#777777" stroke-width="2" stroke-linejoin="round"/><path d="M611.25439,365.45838c-2.27135,0 -4.11265,-1.84129 -4.11265,-4.11264v-35.02914c0,-2.27135 1.8413,-4.11265 4.11265,-4.11265v0c2.27135,0 4.11264,1.8413 4.11264,4.11265v35.02914c0,2.27135 -1.84129,4.11264 -4.11264,4.11264z" data-paper-data="{&quot;creator&quot;:&quot;GraphData&quot;,&quot;enableRadius&quot;:true,&quot;radius&quot;:4.57794,&quot;maxRadius&quot;:4.57794,&quot;strokeChanged&quot;:true,&quot;hasSelected&quot;:false,&quot;selectedCenterX&quot;:611.2543849999996,&quot;selectedCenterY&quot;:343.8311649999999,&quot;selectedRotationAngle&quot;:-90,&quot;selectedScalingX&quot;:1,&quot;selectedScalingY&quot;:1}" fill="#dbdbdb" stroke="#777777" stroke-width="2" stroke-linejoin="round"/><path d="M640.38637,359.87581M622.7328,359.87581c0,3.61315 7.90378,6.54218 17.65357,6.54218c9.74979,0 17.65356,-2.92903 17.65356,-6.54218c0,-3.61315 -7.90377,-6.54219 -17.65356,-6.54219c-9.74979,0 -17.65357,2.92904 -17.65357,6.54219z" data-paper-data="{&quot;creator&quot;:&quot;GraphData&quot;,&quot;reverseBorderAnimation&quot;:true,&quot;strokeChanged&quot;:true,&quot;hasSelected&quot;:false,&quot;selectedCenterX&quot;:640.3863649999996,&quot;selectedCenterY&quot;:359.8758049999999,&quot;selectedRotationAngle&quot;:-90,&quot;selectedScalingX&quot;:1,&quot;selectedScalingY&quot;:1}" fill="#dbdbdb" stroke="#777777" stroke-width="2" stroke-linejoin="round"/><path d="M639.96989,267.67652M600.25743,267.67652c0,21.93259 17.77987,39.71246 39.71246,39.71246c21.93259,0 39.71246,-17.77987 39.71246,-39.71246c0,-21.93259 -17.77987,-39.71246 -39.71246,-39.71246c-21.93259,0 -39.71246,17.77987 -39.71246,39.71246z" data-paper-data="{&quot;creator&quot;:&quot;GraphData&quot;,&quot;reverseBorderAnimation&quot;:true,&quot;hasSelected&quot;:false,&quot;selectedCenterX&quot;:639.9698899999996,&quot;selectedCenterY&quot;:267.67651999999987,&quot;selectedRotationAngle&quot;:-90,&quot;selectedScalingX&quot;:1,&quot;selectedScalingY&quot;:1,&quot;strokeChanged&quot;:true}" fill="#ffffff" stroke="#777777" stroke-width="3" stroke-linejoin="round"/><path d="M653.43689,305.12937c-5.80601,-7.7484 -2.2441,-14.51842 -1.59765,-22.85818c0.0431,-0.55597 -0.03561,-0.99877 -0.20789,-1.35313c-2.63382,1.77385 -9.16214,3.16126 -13.31333,2.19213c-2.27813,0.11642 -4.44253,-0.18626 -5.88725,-0.84848c-0.62972,-0.28865 -1.27958,-0.61523 -1.89758,-0.99266c-0.07838,0.47877 -0.14475,0.9541 -0.14439,1.41022c0.00312,4.01761 1.74264,11.63321 0.19971,15.34907c-1.06864,2.5736 -2.82627,4.93396 -4.95284,6.73482c-0.71948,0.60929 -2.19381,0.55213 -2.82452,-0.14866c-1.90836,-2.12039 2.74904,-5.00683 3.91116,-7.61209c0.65548,-1.46946 -0.28256,-8.41215 -0.32586,-9.31704c-0.21743,-4.5442 -0.7503,-10.03918 1.15283,-14.32137c0.61215,-1.37737 3.88386,3.61902 5.4757,4.80177c-1.20947,-4.45155 7.55581,-5.52 11.07898,-5.36474c0.64922,0.02861 1.32915,-0.01514 1.9568,0.02971c0.0142,-0.02035 0.02848,-0.04077 0.04284,-0.06126c1.18915,-1.69659 3.81824,-1.70028 5.85254,-2.09288c6.4469,-1.24418 3.74806,5.2245 1.35931,8.48773c1.0737,1.079 2.04777,2.26103 2.4831,3.67591c1.28521,4.17704 -2.90699,9.67897 -1.71631,14.24576c0.74961,2.8751 2.33231,12.0172 -0.64536,8.04337zM649.86011,276.73522c1.88268,-1.74239 2.85005,-3.47809 -0.95624,-1.10942c-0.56812,0.35355 0.0889,0.71657 0.95624,1.10942zM640.27721,278.84385c0.77593,-0.08582 1.46841,-0.22013 1.99196,-0.405c0.4418,-0.156 1.23116,-0.72288 1.6058,-1.1477c0.01249,-0.15085 0.03916,-0.31339 0.08114,-0.4886c-0.02089,-0.00403 -0.04455,-0.00657 -0.07111,-0.00751c-1.63119,-0.05784 -3.27947,-0.37963 -4.89453,-0.14361c-0.76688,0.11207 -2.50721,1.30386 -1.76206,1.51695c0.94884,0.27134 1.9839,0.50411 3.04881,0.67547z" data-paper-data="{&quot;creator&quot;:&quot;DrawTool&quot;,&quot;brushShape&quot;:&quot;circle&quot;,&quot;selectedCenterX&quot;:639.2019220474378,&quot;selectedCenterY&quot;:288.3171579395239,&quot;selectedRotationAngle&quot;:-90}" fill="#777777" stroke="none" stroke-width="1" stroke-linejoin="miter"/></g></svg>