<svg xmlns="http://www.w3.org/2000/svg" xmlns:xlink="http://www.w3.org/1999/xlink" width="502px" isFromKittenPainter="true" height="152.50251256281408px" data-paper-data="{&quot;version&quot;:&quot;1.0&quot;}"><g data-paper-data="{&quot;isWorkLayer&quot;:true,&quot;backgroundColor&quot;:&quot;#ffffff&quot;}" fill="none" fill-rule="nonzero" stroke="none" stroke-width="none" stroke-linecap="butt" stroke-linejoin="round" stroke-miterlimit="10" stroke-dasharray="" stroke-dashoffset="0" font-family="none" font-weight="none" font-size="none" text-anchor="none" style="mix-blend-mode: normal" visibility="visible" transform="scale(0.9413735343383585) translate(-373,-250)"><defs defsFrom="KittenPainter"/><g data-paper-data="{&quot;isCustomGroup&quot;:true,&quot;hasSelected&quot;:false,&quot;selectedCenterX&quot;:639.9999999999997,&quot;selectedCenterY&quot;:324.13244030302997,&quot;selectedRotationAngle&quot;:-90,&quot;selectedScalingX&quot;:1,&quot;selectedScalingY&quot;:1,&quot;version&quot;:&quot;1.0&quot;}"><g data-paper-data="{&quot;isCustomGroup&quot;:true,&quot;hasSelected&quot;:false,&quot;selectedCenterX&quot;:735.56864,&quot;selectedCenterY&quot;:360.06043,&quot;selectedRotationAngle&quot;:-90,&quot;selectedScalingX&quot;:1,&quot;selectedScalingY&quot;:1,&quot;strokeHovered&quot;:false}" fill="#ba6228" stroke="#ba6228" stroke-width="32"><path d="M459.88065,328.39725h200.82204l69.94929,66.94644h-340.72062z" data-paper-data="{&quot;creator&quot;:&quot;GraphData&quot;,&quot;reverseBorderAnimation&quot;:false,&quot;hasSelected&quot;:false,&quot;selectedCenterX&quot;:560.2916699999996,&quot;selectedCenterY&quot;:361.87047030302995,&quot;selectedRotationAngle&quot;:-90,&quot;selectedScalingX&quot;:1,&quot;selectedScalingY&quot;:1,&quot;strokeChanged&quot;:true,&quot;strokeHovered&quot;:false}"/><path d="M619.29731,328.64725h200.82205l69.94928,66.94644h-340.72061z" data-paper-data="{&quot;creator&quot;:&quot;GraphData&quot;,&quot;reverseBorderAnimation&quot;:false,&quot;hasSelected&quot;:false,&quot;selectedCenterX&quot;:719.7083349999997,&quot;selectedCenterY&quot;:362.12047030302995,&quot;selectedRotationAngle&quot;:-90,&quot;selectedScalingX&quot;:1,&quot;selectedScalingY&quot;:1,&quot;strokeChanged&quot;:true,&quot;strokeHovered&quot;:false}"/></g><path d="M494.84808,283.47043c-3.32512,0 -6.02067,-2.69555 -6.02067,-6.02067v-6.4838c0,-3.32512 2.69555,-6.02067 6.02067,-6.02067h283.66281c3.32512,0 6.02067,2.69555 6.02067,6.02067v6.4838c0,3.32512 -2.69555,6.02067 -6.02067,6.02067z" data-paper-data="{&quot;creator&quot;:&quot;GraphData&quot;,&quot;enableRadius&quot;:true,&quot;radius&quot;:6.020670500000008,&quot;maxRadius&quot;:9.26257000000001,&quot;strokeChanged&quot;:true,&quot;hasSelected&quot;:false,&quot;selectedCenterX&quot;:636.6794849999997,&quot;selectedCenterY&quot;:274.20786030303003,&quot;selectedRotationAngle&quot;:-90,&quot;selectedScalingX&quot;:1,&quot;selectedScalingY&quot;:1,&quot;strokeHovered&quot;:false}" fill="#dbdbdb" stroke="#aaaaaa" stroke-width="4"/><path d="M530.25426,364.41989c-3.7375,0 -6.76734,-3.02984 -6.76734,-6.76734v-89.4789c0,-3.7375 3.02984,-6.76734 6.76734,-6.76734h7.94893c3.7375,0 6.76734,3.02984 6.76734,6.76734v89.4789c0,3.7375 -3.02984,6.76734 -6.76734,6.76734z" data-paper-data="{&quot;creator&quot;:&quot;GraphData&quot;,&quot;enableRadius&quot;:true,&quot;radius&quot;:6.76734,&quot;maxRadius&quot;:10.74181,&quot;hasSelected&quot;:false,&quot;selectedCenterX&quot;:534.2287249999998,&quot;selectedCenterY&quot;:312.91310030303,&quot;selectedRotationAngle&quot;:-90,&quot;selectedScalingX&quot;:1,&quot;selectedScalingY&quot;:1,&quot;strokeHovered&quot;:false}" fill="#dbdbdb" stroke="#aaaaaa" stroke-width="4"/><path d="M745.50426,364.66989c-3.7375,0 -6.76734,-3.02984 -6.76734,-6.76734v-89.4789c0,-3.7375 3.02984,-6.76734 6.76734,-6.76734h7.94893c3.7375,0 6.76734,3.02984 6.76734,6.76734v89.4789c0,3.7375 -3.02984,6.76734 -6.76734,6.76734z" data-paper-data="{&quot;creator&quot;:&quot;GraphData&quot;,&quot;enableRadius&quot;:true,&quot;radius&quot;:6.76734,&quot;maxRadius&quot;:10.74181,&quot;hasSelected&quot;:false,&quot;selectedCenterX&quot;:749.4787249999997,&quot;selectedCenterY&quot;:313.16310030303,&quot;selectedRotationAngle&quot;:-90,&quot;selectedScalingX&quot;:1,&quot;selectedScalingY&quot;:1,&quot;strokeHovered&quot;:false}" fill="#dbdbdb" stroke="#aaaaaa" stroke-width="4"/><path d="M452.71391,363.16508c-1.57721,0 -2.85577,-1.27858 -2.85577,-2.85579v0c0,-1.57721 1.27857,-2.85577 2.85577,-2.85577h14.76472c1.57721,0 2.85579,1.27857 2.85579,2.85577v0c0,1.57721 -1.27858,2.85579 -2.85579,2.85579z" data-paper-data="{&quot;creator&quot;:&quot;GraphData&quot;,&quot;enableRadius&quot;:true,&quot;radius&quot;:2.18946,&quot;maxRadius&quot;:2.18946,&quot;strokeChanged&quot;:true,&quot;hasSelected&quot;:false,&quot;selectedCenterX&quot;:460.09627999999964,&quot;selectedCenterY&quot;:360.30930030303,&quot;selectedRotationAngle&quot;:-90,&quot;selectedScalingX&quot;:1,&quot;selectedScalingY&quot;:1,&quot;strokeHovered&quot;:false}" fill="#aaaaaa" stroke="#aaaaaa" stroke-width="4"/><path d="M454.49867,352.16559c-3.03716,0 -5.49926,-2.4621 -5.49926,-5.49926v-19.63834c0,-3.03716 2.4621,-5.49926 5.49926,-5.49926h10.99853c3.03716,0 5.49926,2.4621 5.49926,5.49926v19.63834c0,3.03716 -2.4621,5.49926 -5.49926,5.49926z" data-paper-data="{&quot;creator&quot;:&quot;GraphData&quot;,&quot;enableRadius&quot;:true,&quot;radius&quot;:3.71844,&quot;maxRadius&quot;:7.43688,&quot;strokeChanged&quot;:true,&quot;hasSelected&quot;:false,&quot;selectedCenterX&quot;:459.99793499999964,&quot;selectedCenterY&quot;:336.84716030303,&quot;selectedRotationAngle&quot;:-90,&quot;selectedScalingX&quot;:1,&quot;selectedScalingY&quot;:1,&quot;strokeColorFromPalette&quot;:true,&quot;strokeHovered&quot;:false}" fill="#5d5d5d" stroke="#000000" stroke-width="4"/><path d="M450.85854,331.62508c-3.97626,0 -7.19968,-3.2234 -7.19968,-7.19966v-16.23755c0,-3.97626 3.22342,-7.19966 7.19968,-7.19966h18.75317c3.97626,0 7.19966,3.2234 7.19966,7.19966v16.23755c0,3.97626 -3.2234,7.19966 -7.19966,7.19966z" data-paper-data="{&quot;creator&quot;:&quot;GraphData&quot;,&quot;enableRadius&quot;:true,&quot;radius&quot;:9.76825,&quot;maxRadius&quot;:20.7835,&quot;strokeChanged&quot;:true,&quot;hasSelected&quot;:false,&quot;selectedCenterX&quot;:460.2351149999997,&quot;selectedCenterY&quot;:316.30664530303,&quot;selectedRotationAngle&quot;:-90,&quot;selectedScalingX&quot;:1,&quot;selectedScalingY&quot;:1,&quot;strokeColorFromPalette&quot;:true,&quot;strokeHovered&quot;:false}" fill="#5d5d5d" stroke="#000000" stroke-width="4"/><g data-paper-data="{&quot;isCustomGroup&quot;:true,&quot;hasSelected&quot;:false,&quot;selectedCenterX&quot;:485.2607669191599,&quot;selectedCenterY&quot;:273.5720540514694,&quot;selectedRotationAngle&quot;:-90,&quot;selectedScalingX&quot;:1,&quot;selectedScalingY&quot;:1,&quot;strokeHovered&quot;:false}" fill="#fdfdfd" stroke="#777777" stroke-width="4"><path d="M473.01239,289.702c-3.97626,0 -7.19968,-3.2234 -7.19968,-7.19966v-16.23755c0,-3.97626 3.22342,-7.19966 7.19968,-7.19966h18.75317c3.97626,0 7.19966,3.2234 7.19966,7.19966v16.23755c0,3.97626 -3.2234,7.19966 -7.19966,7.19966z" data-paper-data="{&quot;creator&quot;:&quot;GraphData&quot;,&quot;enableRadius&quot;:true,&quot;radius&quot;:9.76825,&quot;maxRadius&quot;:20.7835,&quot;strokeChanged&quot;:true,&quot;hasSelected&quot;:false,&quot;selectedCenterX&quot;:482.3889649999997,&quot;selectedCenterY&quot;:274.38356530302997,&quot;selectedRotationAngle&quot;:-90,&quot;selectedScalingX&quot;:1,&quot;selectedScalingY&quot;:1,&quot;strokeColorFromPalette&quot;:true}"/><path d="M493.18609,294.47292c-3.73749,0 -6.76732,-3.02983 -6.76732,-6.76732v-28.26709c0,-3.73749 3.02983,-6.76732 6.76732,-6.76732h4.75541c3.73749,0 6.76732,3.02983 6.76732,6.76732v28.26709c0,3.73749 -3.02983,6.76732 -6.76732,6.76732z" data-paper-data="{&quot;creator&quot;:&quot;GraphData&quot;,&quot;enableRadius&quot;:true,&quot;radius&quot;:6.767319695935924,&quot;maxRadius&quot;:9.145026616129627,&quot;strokeChanged&quot;:true,&quot;hasSelected&quot;:false,&quot;selectedCenterX&quot;:495.5637949999997,&quot;selectedCenterY&quot;:273.57205530302997,&quot;selectedRotationAngle&quot;:-90,&quot;selectedScalingX&quot;:1,&quot;selectedScalingY&quot;:1}"/></g><g data-paper-data="{&quot;isCustomGroup&quot;:true,&quot;hasSelected&quot;:false,&quot;selectedCenterX&quot;:820.73511,&quot;selectedCenterY&quot;:331.82664,&quot;selectedRotationAngle&quot;:-90,&quot;selectedScalingX&quot;:1,&quot;selectedScalingY&quot;:1,&quot;strokeHovered&quot;:false}" stroke-width="4"><path d="M813.21391,362.91508c-1.57721,0 -2.85577,-1.27858 -2.85577,-2.85579v0c0,-1.57721 1.27857,-2.85577 2.85577,-2.85577h14.76472c1.57721,0 2.85579,1.27857 2.85579,2.85577v0c0,1.57721 -1.27858,2.85579 -2.85579,2.85579z" data-paper-data="{&quot;creator&quot;:&quot;GraphData&quot;,&quot;enableRadius&quot;:true,&quot;radius&quot;:2.18946,&quot;maxRadius&quot;:2.18946,&quot;strokeChanged&quot;:true,&quot;hasSelected&quot;:false,&quot;selectedCenterX&quot;:820.5962799999998,&quot;selectedCenterY&quot;:360.05930030303,&quot;selectedRotationAngle&quot;:-90,&quot;selectedScalingX&quot;:1,&quot;selectedScalingY&quot;:1}" fill="#aaaaaa" stroke="#aaaaaa"/><path d="M814.99867,351.91559c-3.03716,0 -5.49926,-2.4621 -5.49926,-5.49926v-19.63834c0,-3.03716 2.4621,-5.49926 5.49926,-5.49926h10.99853c3.03716,0 5.49926,2.4621 5.49926,5.49926v19.63834c0,3.03716 -2.4621,5.49926 -5.49926,5.49926z" data-paper-data="{&quot;creator&quot;:&quot;GraphData&quot;,&quot;enableRadius&quot;:true,&quot;radius&quot;:3.71844,&quot;maxRadius&quot;:7.43688,&quot;strokeChanged&quot;:true,&quot;hasSelected&quot;:false,&quot;selectedCenterX&quot;:820.4979349999996,&quot;selectedCenterY&quot;:336.59716030303,&quot;selectedRotationAngle&quot;:-90,&quot;selectedScalingX&quot;:1,&quot;selectedScalingY&quot;:1}" fill="#f12629" stroke="#bc0000"/><path d="M811.35854,331.37508c-3.97626,0 -7.19968,-3.2234 -7.19968,-7.19966v-16.23755c0,-3.97626 3.22342,-7.19966 7.19968,-7.19966h18.75317c3.97626,0 7.19966,3.2234 7.19966,7.19966v16.23755c0,3.97626 -3.2234,7.19966 -7.19966,7.19966z" data-paper-data="{&quot;creator&quot;:&quot;GraphData&quot;,&quot;enableRadius&quot;:true,&quot;radius&quot;:9.76825,&quot;maxRadius&quot;:20.7835,&quot;strokeChanged&quot;:true,&quot;hasSelected&quot;:false,&quot;selectedCenterX&quot;:820.7351149999997,&quot;selectedCenterY&quot;:316.05664530303,&quot;selectedRotationAngle&quot;:-90,&quot;selectedScalingX&quot;:1,&quot;selectedScalingY&quot;:1}" fill="#f12629" stroke="#bc0000"/></g><path d="M749.031,274.2389M745.19167,274.2389c0,2.1204 1.71893,3.83933 3.83933,3.83933c2.1204,0 3.83933,-1.71893 3.83933,-3.83933c0,-2.1204 -1.71893,-3.83933 -3.83933,-3.83933c-2.1204,0 -3.83933,1.71893 -3.83933,3.83933z" data-paper-data="{&quot;creator&quot;:&quot;GraphData&quot;,&quot;reverseBorderAnimation&quot;:true,&quot;hasSelected&quot;:false,&quot;selectedCenterX&quot;:749.0309999999996,&quot;selectedCenterY&quot;:274.23890030302994,&quot;selectedRotationAngle&quot;:-90,&quot;selectedScalingX&quot;:1,&quot;selectedScalingY&quot;:1,&quot;strokeChanged&quot;:true,&quot;strokeHovered&quot;:false}" fill="#fdfdfd" stroke="#777777" stroke-width="2"/></g></g></svg>